<svg xmlns="http://www.w3.org/2000/svg"
    xmlns:xlink="http://www.w3.org/1999/xlink" viewBox="0 0 2796.501 2399.961">
    <defs>
        <linearGradient id="a" x1="-5.267" y1="1" x2="-5.267" gradientUnits="objectBoundingBox">
            <stop offset="0" stop-color="gray" stop-opacity="0.251"/>
            <stop offset="0.54" stop-color="gray" stop-opacity="0.122"/>
            <stop offset="1" stop-color="gray" stop-opacity="0.102"/>
        </linearGradient>
        <linearGradient id="b" x1="-0.023" y1="0.5" x2="1.02" y2="0.5" gradientUnits="objectBoundingBox">
            <stop offset="0" stop-color="#e7e5e4"/>
            <stop offset="1" stop-color="#b7baba" stop-opacity="0.737"/>
        </linearGradient>
        <linearGradient id="c" x1="-0.02" y1="0.5" x2="1.02" y2="0.5" xlink:href="#b"/>
        <linearGradient id="d" x1="-0.02" y1="0.5" x2="1.023" y2="0.5" xlink:href="#b"/>
        <linearGradient id="e" x1="-0.02" y1="0.5" x2="1.02" y2="0.5" xlink:href="#b"/>
        <linearGradient id="j" x1="0.5" y1="0.5" x2="-2.258" y2="0.5" gradientUnits="objectBoundingBox">
            <stop offset="0" stop-color="#d1d0d0"/>
            <stop offset="1" stop-color="#898683"/>
        </linearGradient>
        <linearGradient id="k" x1="0.5" y1="0.5" x2="-1.166" y2="0.5" gradientUnits="objectBoundingBox">
            <stop offset="0" stop-color="#d4d2d1"/>
            <stop offset="1" stop-color="#898683"/>
        </linearGradient>
        <linearGradient id="l" x1="0.5" y1="0.637" x2="-0.93" y2="-0.024" gradientUnits="objectBoundingBox">
            <stop offset="0" stop-color="#dbdad9"/>
            <stop offset="1" stop-color="#898683"/>
        </linearGradient>
        <linearGradient id="m" x1="0.5" y1="0.5" x2="-0.764" y2="0.5" gradientUnits="objectBoundingBox">
            <stop offset="0" stop-color="#e3e3e3"/>
            <stop offset="1" stop-color="#898683"/>
        </linearGradient>
        <linearGradient id="n" x1="-1.842" y1="12.844" x2="-1.842" y2="7.69" gradientUnits="objectBoundingBox">
            <stop offset="0" stop-color="#e7e5e4"/>
            <stop offset="1" stop-color="#898683"/>
        </linearGradient>
        <linearGradient id="o" x1="-1.842" y1="11.875" x2="-1.842" y2="6.717" xlink:href="#n"/>
        <linearGradient id="p" x1="-1.842" y1="10.864" x2="-1.842" y2="5.71" xlink:href="#n"/>
        <linearGradient id="q" x1="-1.842" y1="9.894" x2="-1.842" y2="4.736" xlink:href="#n"/>
        <linearGradient id="r" x1="-1.842" y1="8.857" x2="-1.842" y2="3.703" xlink:href="#n"/>
        <linearGradient id="s" x1="-1.842" y1="7.885" x2="-1.842" y2="2.727" xlink:href="#n"/>
        <linearGradient id="t" x1="-1.404" y1="6.928" x2="-1.404" y2="1.773" xlink:href="#n"/>
        <linearGradient id="u" x1="-2.727" y1="5.95" x2="-2.727" y2="0.796" xlink:href="#n"/>
        <linearGradient id="v" x1="-3.212" y1="4.916" x2="-3.212" y2="-0.238" xlink:href="#n"/>
        <linearGradient id="w" x1="-3.212" y1="3.939" x2="-3.212" y2="-1.219" xlink:href="#n"/>
        <linearGradient id="x" x1="-3.212" y1="2.903" x2="-3.212" y2="-2.251" xlink:href="#n"/>
        <linearGradient id="y" x1="-3.212" y1="1.924" x2="-3.212" y2="-3.231" xlink:href="#n"/>
        <linearGradient id="z" x1="-3.212" y1="-12.329" x2="-3.212" y2="-17.484" gradientUnits="objectBoundingBox">
            <stop offset="0" stop-color="#e3e0df"/>
            <stop offset="1" stop-color="#898683"/>
        </linearGradient>
        <linearGradient id="ab" x1="-3.212" y1="-3.197" x2="-3.212" y2="-8.352" xlink:href="#n"/>
        <linearGradient id="ac" x1="-3.212" y1="-4.18" x2="-3.212" y2="-9.338" xlink:href="#n"/>
        <linearGradient id="ad" x1="-3.212" y1="-5.21" x2="-3.212" y2="-10.364" xlink:href="#n"/>
        <linearGradient id="ae" x1="-3.212" y1="-6.19" x2="-3.212" y2="-11.344" xlink:href="#n"/>
        <linearGradient id="af" x1="-3.212" y1="-7.297" x2="-3.212" y2="-12.452" xlink:href="#n"/>
        <linearGradient id="ag" x1="-3.212" y1="-8.277" x2="-3.212" y2="-13.432" xlink:href="#n"/>
        <linearGradient id="ah" x1="-3.212" y1="-9.317" x2="-3.212" y2="-14.475" xlink:href="#n"/>
    </defs>
    <g transform="translate(-660.052 -343.524)">
        <path d="M1402.848,2003.607c197.042-109.059,422.124-143.878,642.083-97.095,311.715,66.263,703.438,40.28,779.211-470.932,129.582-873.116-389.381-1122.842-389.381-1122.842S2013.7,168.836,1800.153,53.672c-303.34-163.573-551.74-138.448-856.615,0C748.582,142.115,525.56,352.261,498.1,521.325c-76.694,472.987,49.268,733.563-186.367,887.964s-34.267,578.3,146.455,563.64,588.857-175.66,747.92,10.8C1262.651,2049.776,1334.13,2041.647,1402.848,2003.607Z" transform="translate(611.636 403.305)" fill="#3341bc" opacity="0.48"/>
        <g transform="translate(778.37 515.208) rotate(-3)">
            <path d="M58.362,0l217.18,217.244-58.425,58.425L0,58.425Z" transform="translate(336.175 1862.965)" fill="#fff" opacity="0.4"/>
            <path d="M58.425,0,275.669,217.243l-58.425,58.425L0,58.425Z" transform="translate(330.478 1524.313)" fill="#fff" opacity="0.4"/>
            <path d="M58.362,592.419,275.606,809.663,217.18,868.088,0,650.844ZM305.8,0,522.98,217.244l-58.425,58.425L247.374,58.425Z" transform="translate(503.032 1104.385)" fill="#fff" opacity="0.4"/>
            <path d="M58.425,0,275.669,217.18l-58.425,58.425L0,58.425Z" transform="translate(922.834 1276.939)" fill="#fff" opacity="0.4"/>
            <path d="M58.362,0,275.606,217.244l-58.362,58.425L0,58.425Z" transform="translate(881.056 900.18)" fill="#fff" opacity="0.4"/>
            <path d="M58.425,0,275.669,217.244l-58.425,58.425L0,58.425Z" transform="translate(1090.325 1109.449)" fill="#fff" opacity="0.4"/>
            <path d="M58.425,0,275.669,217.244l-58.425,58.362L0,58.425Z" transform="translate(1048.484 732.691)" fill="#fff" opacity="0.4"/>
            <path d="M58.362,637.931l217.244,217.18L217.18,913.537,0,696.293ZM277.631,0,494.875,217.244l-58.425,58.362L219.206,58.425Z" transform="translate(1257.878 304.09)" fill="#fff" opacity="0.4"/>
            <path d="M58.425,0,275.669,217.18l-58.425,58.425L0,58.362Z" transform="translate(1686.415 513.421)" fill="#fff" opacity="0.4"/>
            <path d="M58.425,0,275.669,217.244l-58.425,58.425L0,58.425Z" transform="translate(1643.308 132.676)" fill="#fff" opacity="0.4"/>
            <path d="M58.425,0,275.669,217.18l-58.425,58.425L0,58.425Z" transform="translate(1855.171 344.602)" fill="#fff" opacity="0.4"/>
            <path d="M156.19,41.524c-42.431,42.431-73.938,89.811-97.127,140.957C-4.771,323.273-5,492.142,4.524,662.238c31.713,1.772,63.426,3.861,95.076,5.95,24.687,1.646,49.057,3.228,73.364,4.684-12.533-208-12.6-398.723,101.659-512.978,46.019-44.5,60.451-104.634,28.295-137.107C269.053-11.394,205.31-8.672,156.19,41.524Z" transform="translate(1413.185 0)" fill="#fff" opacity="0.4"/>
            <path d="M182.3,269.852l-9.685-168.376c-1.646-28.168-3.671-56.906-4.684-84.315C149.2-1.576,11.837-4.931,0,6.906c.823,27.852,2.975,55.957,4.494,84,1.772,31.776,7.976,144.006,9.432,168.376C17.344,316.883,20,373.6,19.37,427.4,35.764,443.8,169.453,455.066,186.8,437.658c.949-55.2-1.393-111.47-4.494-167.807Z" transform="translate(641.658 1343.903)" fill="#fff" opacity="0.4"/>
            <path d="M299.011,10.255,131.33,0c-1.646,139.828-24.307,262.376-106.786,344.855a83.723,83.723,0,1,0,118.37,118.433c153.375-153.311,156.16-454.11,156.1-453.034Z" transform="translate(529.634 1771.243)" fill="#fff" opacity="0.4"/>
            <path d="M1596.72,10.634c-31.713-1.772-63.489-3.861-95.139-5.95Q1464.645,2.215,1428.28,0c12.533,207.938,12.6,398.723-101.722,512.978C1212.366,627.17,1021.9,627.234,814.212,614.7c-24.433-1.456-136.663-8.862-168.123-10.634-232.119-13.04-461.9-7.976-621.6,151.729a83.723,83.723,0,1,0,118.433,118.37c114.255-114.192,304.787-114.319,512.6-101.785,24.37,1.456,136.79,8.862,168.376,10.634,231.8,12.976,461.389,7.912,621.03-151.665C1604.506,471.834,1609.7,242.373,1596.72,10.634Z" transform="translate(0 830.678)" fill="#fff" opacity="0.4"/>
            <path d="M182.619,263.009c-1.772-31.713-9.178-144.133-10.634-168.376q-2.564-42.727-4.051-84.315C146.665,8.989,35,1.9,0,0,.823,27.852,2.026,55.893,3.545,83.935c1.772,31.713,9.178,144.133,10.634,168.44,3.481,57.856,5.76,114.192,5.127,168.123,21.079,1.329,132.549,8.356,167.427,10.255.949-55.2-.949-111.344-4.114-167.743Z" transform="translate(1414.101 578.303)" fill="#fff" opacity="0.4"/>
            <path d="M1603.282,21.976c-26.585-27.6-87.67-38.043-145.019,22.345C1344.008,158.576,1153.35,158.639,945.285,146.042c-24.307-1.456-136.727-8.925-168.44-10.7-231.676-12.976-461.2-7.786-620.714,151.729C15.922,427.282-4.966,621.547.857,823.852c35,1.9,146.791,8.989,167.933,10.254-6.2-174.39,7.153-330.043,105.773-428.663C388.819,291.188,579.54,291.188,787.542,303.721c24.244,1.456,136.727,8.862,168.44,10.634,231.739,12.976,461.2,7.849,620.714-151.665C1632.78,107.683,1629.868,49.574,1603.282,21.976Z" transform="translate(640.801 526.894)" fill="#fff" opacity="0.4"/>
        </g>
        <ellipse cx="476.318" cy="62.03" rx="476.318" ry="62.03" transform="translate(1599.868 2547.448)" fill="#1d2366" opacity="0.1"/>
        <rect width="401.509" height="8.927" transform="translate(1783.951 1655.189)" fill="#1d2366" opacity="0.1"/>
        <rect width="401.509" height="34.175" transform="translate(1783.951 1675.988)" fill="#1d2366" opacity="0.1"/>
        <rect width="401.509" height="54.974" transform="translate(1783.951 1822.229)" fill="#1d2366" opacity="0.1"/>
        <path d="M830.012,586.14v54.944H515.842q-20.493-15.645-40.4-32.058c-9.2-7.608-18.407-15.339-27.61-22.885Z" transform="translate(1355.417 1403.128)" fill="#1d2366" opacity="0.1"/>
        <path d="M486.71,1485.886a126.711,126.711,0,0,1-10.737,33.439h2.209c-49.974,75.283-8.436,234.316-8.436,234.316s10.86,59.361,29.45,124.8c10.308,36.23,4.663,56.6-2.362,67.491v.215c-.46.706-.89,1.442-1.35,2.178v-1.074c-42.611,50.219,11.259,82.771,11.259,82.771,164.324,67.5,79.7-108.448,75.743-133.389-7.117-44.851,5.921-154.983,5.921-154.983s4.663-133.938,14.725-164.4a247.936,247.936,0,0,0,9.05-47.428c.276-2.332.491-4.632.706-6.841,80.529.614,174.862-1.565,217.964-13.468a303.938,303.938,0,0,1,37.734-7.7c-.368,2.209-.8,4.54-1.258,7.025a527.641,527.641,0,0,1-14.786,57.766c-18.591,59.361-10.86,159.063,14.694,230.6,18.683,52.152,13.406,122.71,9.2,156.947-.153,1.411-.337,2.792-.521,4.08l-.491-.43a28.59,28.59,0,0,1-9.387,20.83,48.041,48.041,0,0,0-17.149,44.544,60.189,60.189,0,0,0,26.137,39.635c62.736-10.737,182.593,10.676,182.593,10.676l-.859,5.921-.583-.521c-27.027-25.34-61.355-88.382-61.355-88.382s-2.332-31.966-10.829-47.182-5.215-175.138-5.215-175.138l-.675-260.576v-6.872c15.339,1.2,26.26,1.994,30.156.307,12.271-5.307,2.3-88.29-8.528-108.844-6.78-12.823-32.549-98.536-50.956-161.211a175.135,175.135,0,0,0,16.075,21.168c-11.658-15.339-75.1-320.366-75.1-320.366l-2.178-39.881a217.606,217.606,0,0,0,24.542-41.66c25.033-2.822,87.431-13.744,121.575-53.87,7.915-9.2,9.6-15.922,7.056-20.462l114.213-49.636c22.7-42.488-5.123-57.919-32.3-63.38l6.5-20.186a9.449,9.449,0,0,0-1.35-8.5h0l-.215-.245-.43-.552a9.177,9.177,0,0,0-.767-.767l-.521-.46a11.172,11.172,0,0,0-.982-.675l-.521-.307a13.948,13.948,0,0,0-1.687-.736,9.971,9.971,0,0,0-12.455,6.35l-7.577,23.5-3.252-.184h0L958.286,654S935.83,620.532,927.3,630.41s-20.922-1.5-20.922-1.5,0-71.54-18.591-68.5a23.5,23.5,0,0,1-18.928-5.154l-.429-7.792s-3.068-36.537-6.135-67.736c-2.822-28.5-55.22-66.478-64.423-72.89l-59.668-83.351a4.275,4.275,0,0,0-.307.491L735.9,321.18h0l.276-1.749c.276-1.442.491-2.853.767-4.295a117.306,117.306,0,0,0,35.249,5.4c63.533,0,115.01-50.587,115.01-113.016a110.719,110.719,0,0,0-8.252-42.12c-.215-.552-.46-1.074-.675-1.626a32.917,32.917,0,0,0,18.836-1.9c.98-.435-189.617,101.015-310.2,153.265-46.009,19.936-100.226,85.148-103.077,91.7-1.62,3.7-31.525,178.689-27.5,181.151-1.442,46.016-.583,82.063-.583,82.063,24.021,38.807-38.715,350.86-38.715,350.86C402.377,1080.941,486.955,1484.505,486.71,1485.886ZM894.047,758.7c-2.454-.153-5-.276-7.608-.368V757.6Zm65.62,7.639-5.675,5.675c-11.995,1.964-20.278,3.743-20.278,3.743l-11.872,2.669c-1.5-7.761-3.712-13.437-5.951-15.615a8.681,8.681,0,0,0-3.436-1.657C927.885,763.091,944.052,764.808,959.667,766.342Z" transform="translate(1288.222 525.839)" fill="url(#a)"/>
        <path d="M578.771,912.369c18.406,52.152,13.1,122.281,8.988,156.456-1.534,12.608-3.068,20.309-3.068,20.309s27.3,62.214,29.573,64.423,80.406,50.066,80.406,50.066,109.979,7.578,83.412-.767a39.881,39.881,0,0,1-14.3-9.786c-26.475-25.248-60.036-88.076-60.036-88.076s-2.27-31.844-10.584-47-5.338-174.464-5.338-174.464l-.644-259.686V590.1l-103.936.767a237.694,237.694,0,0,1-4.479,34.206,524,524,0,0,1-14.48,57.582C546.161,741.709,553.738,841.074,578.771,912.369Z" transform="translate(1575.582 1411.317)" fill="#ffd2d2"/>
        <path d="M564.26,766.48s27.3,62.214,29.573,64.423,80.406,50.066,80.406,50.066,73.107-6.283-107.065-134.859C565.641,758.78,564.26,766.48,564.26,766.48Z" transform="translate(1596.167 1733.908)" opacity="0.1"/>
        <path d="M474.923,995.4c10.062,36.077,4.571,56.416-2.332,67.337a.763.763,0,0,0,0,.215,124.583,124.583,0,0,0-18.161,44.329l-.614,3.406L525.081,1214.6l38.562,15.186s62.183-21.229,50.8-27.3c-2.822-1.5-7.271-9.357-12.271-20.278-15.339-32.856-36.2-93.475-36.2-93.475v-.491c-2.178-25.064-5.675-50-9.571-74.854-6.964-44.7,5.829-154.462,5.829-154.462s4.54-133.478,14.418-163.849a253.329,253.329,0,0,0,8.835-47.244c2.086-19.081,2.546-34.666,2.546-34.666s-40.955-56.876-116.053,4.571A83.664,83.664,0,0,0,456.3,634.758c-51.845,73.78-10.124,236.218-10.124,236.218S456.7,930.183,474.923,995.4Z" transform="translate(1319.183 1409.424)" fill="#ffd2d2"/>
        <path d="M437.93,792.14l71.264,103.905,38.684,15.186s62.183-21.229,50.8-27.3c-2.822-1.5-7.271-9.357-12.271-20.278-26.352-.246-39.881,24.849-39.881,24.849l-33.377-5.307s-43.992-86.48-53.839-91.757-1.534-39.482-1.534-39.482V743.24l-.8.982a.763.763,0,0,0,0,.215,124.576,124.576,0,0,0-18.161,44.329Z" transform="translate(1334.947 1727.974)" opacity="0.1"/>
        <path d="M566.779,590.775a237.713,237.713,0,0,1-4.479,34.206c42.948-6.289,82.461-3.068,108.506-1.135V590.1Z" transform="translate(1592.114 1411.317)" opacity="0.1"/>
        <path d="M437.43,644.258s60.834,3.068,133.233,3.558c2.086-19.081,2.546-34.666,2.546-34.666s-40.955-56.876-116.053,4.571a83.662,83.662,0,0,0-15.676,17.026,94.7,94.7,0,0,1-4.05,9.51Z" transform="translate(1333.912 1409.403)" opacity="0.1"/>
        <path d="M437.43,1086.016s266.22,12.885,347.363-9.848,161.548-3.068,173.7-8.375,2.27-87.983-8.344-108.445S881.12,731.812,881.12,731.812L824.98,438.995l-59.146-16.321-4.172-1.166L658.585,393.07l-75.528-20.83S433.043,958.581,445.774,1001.806a110.592,110.592,0,0,1,2.178,50.894,127.923,127.923,0,0,1-10.522,33.316Z" transform="translate(1333.912 960.834)" fill="#1d2366"/>
        <path d="M663.839,328.75s53.1,56.876,12.885,88.75S610,420.568,610,420.568Z" transform="translate(1690.746 870.907)" fill="#c7daf5"/>
        <path d="M495.89,216.386a112.74,112.74,0,0,0,75.528,86.45A389.827,389.827,0,0,1,583.9,251.6s-73.964-95.561-75.1-76.234C508.5,182.64,502.731,198.9,495.89,216.386Z" transform="translate(1454.794 548.417)" opacity="0.1"/>
        <path d="M565.9,232.567,556.327,219.1s-6.35,38.684-29.665,21.628S502.12,369.083,502.12,369.083L527.153,743.35l181-10.8-5.123-181-20.493-90.99L631.917,328.006,601.761,284.2Z" transform="translate(1467.676 644.177)" opacity="0.1"/>
        <path d="M502.14,369.968,524.78,708.4l2.393,35.862,100.868-6.135,3.988-.245,76.05-4.54-5.123-181-20.493-90.99L631.845,328.8l-30.156-43.777-35.831-51.784-9.571-13.467s-6.35,38.685-29.665,21.474l-.491-.337h0C503.275,226.611,502.14,369.968,502.14,369.968Z" transform="translate(1467.718 645.563)" fill="#1d2366"/>
        <path d="M581.047,288.2s9.2,18.959,27.3,15.922,18.192,68.288,18.192,68.288,12.271,11.351,20.493,1.5,30.34,23.5,30.34,23.5l138.049,6.136s-61.355,28.07-49.3,113.016c0,0-208.608-12.885-215.388-32.61S581.047,288.2,581.047,288.2Z" transform="translate(1566.495 787.059)" fill="#fff"/>
        <path d="M581.047,288.2s9.2,18.959,27.3,15.922,18.192,68.288,18.192,68.288,12.271,11.351,20.493,1.5,30.34,23.5,30.34,23.5l138.049,6.136s-61.355,28.07-49.3,113.016c0,0-208.608-12.885-215.388-32.61S581.047,288.2,581.047,288.2Z" transform="translate(1566.495 787.059)" fill="#9b9b9b" opacity="0.03"/>
        <path d="M529.411,251.552c4.97,7.455,19.2,46.507,31.107,80.467,9.909,28.315,18.223,53.042,18.223,53.042s19.327,125.778,29.174,148.633,4.571,111.513,4.571,111.513L649.3,864.4s16.658,113.047,42.427,180.538c25.4,66.448,53.686,97.616,54.575,98.567-11.381-15.339-73.626-319.262-73.626-319.262L652.214,441.2s-3.068-36.414-6.135-67.491-64.423-73.626-64.423-73.626L522.325,215.69C516.343,224,520.331,237.9,529.411,251.552Z" transform="translate(1503.581 637.126)" fill="#fff"/>
        <path d="M576.22,444.506s87.217-3.8,129.7-54.606-97.862-20.493-97.862-20.493l-36.384,8.344Z" transform="translate(1611.51 936.426)" fill="#ffd2d2"/>
        <path d="M440.667,1303.351a110.592,110.592,0,0,1,2.178,50.894c95.316,6.78,197.288-19.02,197.288-19.02,18.959,17.456,69.025,43.225,69.025,43.225l27.3-338.282c17.425-45.495,24.266-284.412,24.266-284.412s-1.565-12.516-3.988-31.23a3.732,3.732,0,0,0-.184-1.411c-6.81-52.305-20.278-150.535-26.9-163.788-9.2-18.192,28.039-66.724,28.039-66.724l-16.9-144.185-2.055-17.364c-35.647-15.952-62.951-66.785-62.951-66.785l-20.953-36.813h0C632,212.823,630.868,356.3,630.868,356.3l22.64,338.435-75.528-20.83S427.936,1260.126,440.667,1303.351Z" transform="translate(1339.02 659.29)" opacity="0.1"/>
        <path d="M408.26,1387.773c103.874,51.569,292.756,3.8,292.756,3.8,18.959,17.425,69.025,43.225,69.025,43.225l27.3-338.282c17.425-45.495,24.266-284.412,24.266-284.412s-22-178.237-31.107-196.337c-2.638-5.307-1.35-13.222,1.779-21.72A275.117,275.117,0,0,0,808.94,466.8l-7.271-62.03-2.055-17.394c-35.647-15.922-62.951-66.754-62.951-66.754l-19.02-33.285-34.973-61.355L666.105,196.96l-2.792,2.546-21.474,19.48s-9.2,7.485-22.763,19.051c-29.757,25.094-81.173,69.209-107.678,96.2-23.315,23.806-30.678,116.3-32.825,185.937-1.411,45.894-.552,81.848-.552,81.848,23.53,38.684-37.917,349.725-37.917,349.725C425.685,1011.573,408.26,1387.773,408.26,1387.773Z" transform="translate(1273.596 598.397)" fill="#fff"/>
        <path d="M542.491,240.594s71.295,135.748,62.95,187.318S573.567,537.89,584.948,551.542a41.967,41.967,0,0,0,33.377,16.781c11.381.767,41.722,22,41.722,24.266s28.07,2.27,53.1,12.885,62.184,16.689,62.184,16.689,72.062-2.27,78.872,4.571,13.652,47.765-.767,80.375-30.34,56.907-42.458,61.355-88.75-21.229-150.934-27.3-129.7-55.373-129.7-55.373-74.332-26.536-87.216-71.295,15.922-290.486,15.922-290.486S481.043,209.578,542.491,240.594Z" transform="translate(1338.831 677.597)" opacity="0.03"/>
        <path d="M545.368,236.932s71.295,135.748,62.981,187.318-31.874,109.979-20.493,123.631a41.967,41.967,0,0,0,33.469,16.689c11.381.767,41.721,22,41.721,24.266s28.039,2.27,53.072,12.915,62.214,16.689,62.214,16.689,72.031-2.3,78.872,4.54,13.651,47.765-.767,80.406-30.34,56.876-42.458,61.355-88.75-21.229-150.934-27.3-129.7-55.373-129.7-55.373-74.332-26.536-87.216-71.295,15.922-290.486,15.922-290.486S483.951,205.825,545.368,236.932Z" transform="translate(1345.035 669.968)" opacity="0.03"/>
        <path d="M543.214,238.41s71.295,135.779,62.95,187.348-31.843,109.979-20.493,123.631a41.966,41.966,0,0,0,33.377,16.689c11.381.736,41.722,21.965,41.722,24.266s28.07,2.27,53.1,12.885,62.184,16.689,62.184,16.689,72.062-2.27,78.872,4.54,13.651,47.8-.736,80.406-30.34,56.876-42.488,61.355-88.75-21.229-150.934-27.3-129.7-55.22-129.7-55.22-74.3-26.567-87.216-71.295,15.983-290.548,15.983-290.548S481.859,207.3,543.214,238.41Z" transform="translate(1340.316 673.031)" fill="#fff"/>
        <path d="M485.345,355.753s56.907-11.381,37.181,7.577-19.726,35.647-43.992,34.911S485.345,355.753,485.345,355.753Z" transform="translate(1399.751 919.739)" opacity="0.1"/>
        <path d="M470.521,486.73s25.769,17.456-23.53,57.643S470.521,486.73,470.521,486.73Z" transform="translate(1318.277 1197.572)" fill="#e5e5e5" opacity="0.1"/>
        <path d="M483.241,533.46c0,2.27,9.2,83.412-25.033,103.905S483.241,533.46,483.241,533.46Z" transform="translate(1354.857 1294.199)" opacity="0.1"/>
        <path d="M620.89,343.66Z" transform="translate(1713.264 901.738)" fill="#ffd2d2"/>
        <path d="M622.455,345.266,621.32,344.1Z" transform="translate(1714.153 902.647)" fill="#ffd2d2"/>
        <path d="M477,238.787c29.174,19.94,53.655,36.813,58.287,40.28,13.1,9.663,38.132,66.57,54.054,95.561C602.165,398,643.763,404.017,659.47,405.49L657.415,388.1c-35.586-15.922-62.889-66.785-62.889-66.785l-70.558-123.6-24.266,22S490.59,227.253,477,238.787Z" transform="translate(1415.734 599.948)" opacity="0.1"/>
        <path d="M477,238.047c29.174,19.94,53.655,36.813,58.287,40.28,13.1,9.663,38.132,66.54,54.054,95.561,12.823,23.376,54.422,29.389,70.129,30.862l-2.055-17.394c-35.647-15.922-62.95-66.754-62.95-66.754L523.906,196.97,499.64,219S490.59,226.482,477,238.047Z" transform="translate(1415.734 598.418)" fill="#dce7ff"/>
        <path d="M530.162,252.323c4.939,7.424,19.2,46.507,31.107,80.437,11.105-4.295,21.229-31.9,21.229-31.9L523.137,216.43C517.063,224.774,521.051,238.671,530.162,252.323Z" transform="translate(1505.131 638.656)" opacity="0.1"/>
        <path d="M529.392,251.552c4.97,7.455,19.2,46.507,31.107,80.467,11.136-4.295,21.229-31.935,21.229-31.935L522.4,215.69C516.324,224,520.312,237.9,529.392,251.552Z" transform="translate(1503.599 637.126)" fill="#dce7ff"/>
        <path d="M677.457,319.4h0a9.694,9.694,0,0,0-12.271,6.289L632.268,429.317l2.485,16.29-2.393,2.485-3.19-21.658L662.056,322.8a9.694,9.694,0,0,1,12.271-6.319h0a9.694,9.694,0,0,1,5.031,3.712,8.682,8.682,0,0,0-1.9-.8Z" transform="translate(1730.385 844.549)" fill="#fff" opacity="0.1"/>
        <path d="M636.032,358.053a4.537,4.537,0,0,0-1.2-.982,1.687,1.687,0,0,0-1.779,0,5.658,5.658,0,0,0-.644,1.012,3.221,3.221,0,0,1-2.362,1.6l.583,3.9Z" transform="translate(1732.205 928.944)" fill="#727a9c"/>
        <path d="M664.39,325.76c27.61.92,86.94,9.2,56.109,66.816-27.242,50.864-73.013,16.873-98.659-8.927a97.185,97.185,0,0,1,42.55-57.889Z" transform="translate(1715.229 864.725)" fill="#ffd2d2"/>
        <g transform="matrix(0.951, 0.309, -0.309, 0.951, 2377.329, 1122.469)">
            <g transform="translate(24.66 0)">
                <path d="M0,0H12.534V2.317H0Z" transform="translate(0.655)" fill="#0705b2" stroke="#e5e5e5" stroke-linecap="round" stroke-linejoin="round" stroke-width="1.436"/>
                <g transform="translate(0 1.763)">
                    <path d="M0,0H13.844V15.215H0Z" fill="#e7e5e4" stroke="#e5e5e5" stroke-linecap="round" stroke-linejoin="round" stroke-width="1.141"/>
                    <path d="M0,0H1.1V2.573H0Z" transform="translate(0.78 0.128)" stroke="#e5e5e5" stroke-linecap="round" stroke-linejoin="round" stroke-width="0.132" fill="url(#b)"/>
                    <path d="M0,0H1.1V2.573H0Z" transform="translate(2.394 0.128)" stroke="#e5e5e5" stroke-linecap="round" stroke-linejoin="round" stroke-width="0.132" fill="url(#c)"/>
                    <path d="M0,0H1.1V2.573H0Z" transform="translate(4.008 0.128)" stroke="#e5e5e5" stroke-linecap="round" stroke-linejoin="round" stroke-width="0.132" fill="url(#d)"/>
                    <path d="M0,0H1.1V2.573H0Z" transform="translate(5.622 0.128)" stroke="#e5e5e5" stroke-linecap="round" stroke-linejoin="round" stroke-width="0.132" fill="url(#e)"/>
                    <path d="M0,0H1.1V2.573H0Z" transform="translate(7.238 0.128)" stroke="#e5e5e5" stroke-linecap="round" stroke-linejoin="round" stroke-width="0.132" fill="url(#b)"/>
                    <path d="M0,0H1.1V2.573H0Z" transform="translate(8.852 0.128)" stroke="#e5e5e5" stroke-linecap="round" stroke-linejoin="round" stroke-width="0.132" fill="url(#c)"/>
                    <path d="M0,0H1.1V2.573H0Z" transform="translate(10.466 0.128)" stroke="#e5e5e5" stroke-linecap="round" stroke-linejoin="round" stroke-width="0.132" fill="url(#d)"/>
                    <path d="M0,0H1.1V2.573H0Z" transform="translate(12.08 0.128)" stroke="#e5e5e5" stroke-linecap="round" stroke-linejoin="round" stroke-width="0.132" fill="url(#d)"/>
                </g>
            </g>
            <path d="M0,0H9.836V4.608H0Z" transform="translate(43.852 17.869)" fill="#eceaeb" stroke="#e5e5e5" stroke-linecap="round" stroke-linejoin="round" stroke-width="1.576"/>
            <rect width="5.365" height="17.086" transform="translate(34.198 211.364)" stroke="#e5e5e5" stroke-linecap="round" stroke-linejoin="round" stroke-width="1.97" fill="url(#j)"/>
            <rect width="10.048" height="46.007" transform="translate(31.859 166.95)" stroke="#e5e5e5" stroke-linecap="round" stroke-linejoin="round" stroke-width="1.97" fill="url(#k)"/>
            <rect width="16.034" height="11.145" transform="translate(28.864 159.584)" stroke="#e5e5e5" stroke-linecap="round" stroke-linejoin="round" stroke-width="1.97" fill="url(#l)"/>
            <rect width="18.928" height="33.416" transform="translate(27.418 125.939)" stroke="#e5e5e5" stroke-linecap="round" stroke-linejoin="round" stroke-width="1.97" fill="url(#m)"/>
            <path d="M18.54.012A112.046,112.046,0,0,0,.717,1.572c-1.035.251-1.223,2.712,1.3,2.339,11.538-2.311,22.414-.664,22,4.678V115.181H58.058V7.274H41.488V.127S24.3-.046,18.54.012Z" transform="translate(0 13.759)" fill="#f5f5f5" stroke="#e5e5e5" stroke-linecap="round" stroke-linejoin="round" stroke-width="1.576"/>
            <path d="M0,0,16.312,2.466V4.93H.229Z" transform="translate(42.082 13.532)" fill="#f9f9f9" stroke="#e5e5e5" stroke-linecap="round" stroke-linejoin="round" stroke-width="1.178"/>
            <path d="M0,0H7.8V23.03H0Z" transform="translate(49.911 25.652)" fill="#ecffff" stroke="#e5e5e5" stroke-linecap="round" stroke-linejoin="round" stroke-width="1.185"/>
            <path d="M0,0H25.478V3.919H0Z" transform="translate(24.161 25.556)" fill="url(#n)"/>
            <path d="M0,0H25.478V3.916H0Z" transform="translate(24.161 29.388)" fill="url(#o)"/>
            <path d="M0,0H25.478V3.918H0Z" transform="translate(24.161 33.314)" fill="url(#p)"/>
            <path d="M0,0H25.478V3.916H0Z" transform="translate(24.161 37.146)" fill="url(#q)"/>
            <path d="M0,0H25.478V3.919H0Z" transform="translate(24.161 41.182)" fill="url(#r)"/>
            <path d="M0,0H25.478V3.916H0Z" transform="translate(24.161 45.013)" fill="url(#s)"/>
            <path d="M0,0H33.435V3.919H0Z" transform="translate(24.161 48.741)" fill="url(#t)"/>
            <path d="M0,0H17.213c-1.446.648-2.906,1.28-2.562,3.919H0Z" transform="translate(24.161 52.572)" fill="url(#u)"/>
            <path d="M0,0H14.612V3.919H0Z" transform="translate(24.161 56.624)" fill="url(#v)"/>
            <path d="M0,0H14.612V3.916H0Z" transform="translate(24.161 60.464)" fill="url(#w)"/>
            <path d="M0,0H14.612V3.919H0Z" transform="translate(24.161 64.511)" fill="url(#x)"/>
            <path d="M0,0H14.612V3.918H0Z" transform="translate(24.161 68.35)" fill="url(#y)"/>
            <path d="M0,0H14.612V3.919H0Z" transform="translate(24.161 72.503)" fill="#e3e0df"/>
            <path d="M0,0H14.612V3.919H0Z" transform="translate(24.161 76.343)" fill="#e3e0df"/>
            <path d="M0,0H14.612V3.916H0Z" transform="translate(24.161 80.392)" fill="url(#z)"/>
            <path d="M0,0H14.612V3.918H0Z" transform="translate(24.161 84.229)" fill="url(#z)"/>
            <path d="M0,0H14.612V3.919H0Z" transform="translate(24.161 88.417)" fill="url(#ab)"/>
            <path d="M0,0H14.612V3.916H0Z" transform="translate(24.161 92.257)" fill="url(#ac)"/>
            <path d="M0,0H14.612V3.919H0Z" transform="translate(24.161 96.303)" fill="url(#ad)"/>
            <path d="M0,0H14.612V3.919H0Z" transform="translate(24.161 100.143)" fill="url(#ae)"/>
            <path d="M0,0H14.612V3.919H0Z" transform="translate(24.161 104.484)" fill="url(#af)"/>
            <path d="M0,0H14.612V3.918H0Z" transform="translate(24.161 108.323)" fill="url(#ag)"/>
            <path d="M0,0H14.612V3.916H0Z" transform="translate(24.161 112.373)" fill="url(#ah)"/>
            <path d="M0,0H14.612V3.919H0Z" transform="translate(24.161 116.21)" fill="url(#z)"/>
            <path d="M0,0H14.612V3.919H0Z" transform="translate(24.161 120.362)" fill="url(#z)"/>
            <path d="M0,0H14.612V3.919H0Z" transform="translate(24.161 124.202)" fill="url(#z)"/>
        </g>
        <path d="M52.807,0S-13.18-.4,2.373,27.61,42.254,59.085,42.254,59.085Z" transform="matrix(0.995, 0.105, -0.105, 0.995, 2361.611, 1207.305)" fill="#ffd2d2"/>
        <path d="M673.653,407.9a165.777,165.777,0,0,1-55.68,19.425c-31.866,4.856-41.3-7.262-71.786,0s-75.995,29.048-75.995,29.048L397.312,239.032,625.569,190.8Z" transform="translate(1510.917 425.507)" fill="#d4b889"/>
        <ellipse cx="104.081" cy="104.081" rx="104.081" ry="104.081" transform="translate(1949.585 599.806)" fill="#ffd2d2"/>
        <path d="M487.49,276.662s6.136,5.89,15.615,14.664c13.375,12.486,33.162,30.678,50.71,46.016,24.327,21.168,44.36,36.813,37.212,23.438s-5.829-36.353-2.239-57.981c.245-1.442.46-2.853.736-4.295a399.348,399.348,0,0,1,11.749-46.937s-39.267-50.771-61.018-70.8c-8.1-7.485-13.744-10.676-14.081-5.43-.4,7.086-5.737,22.64-12.271,39.451l-.614,1.565c-4.448,11.289-9.387,23.07-13.774,33.193C492.8,265.1,487.49,276.662,487.49,276.662Z" transform="translate(1437.425 548.329)" fill="#ffd2d2"/>
        <path d="M922.494,310.107s53.817,19.639,55.2,91.041a128.913,128.913,0,0,1-4.765,35.553c-3.489,13.123-6.289,41.6,17.178,79.55,15.333,24.636,32.519,24.221,44.839,50.494,0,0-59.436,12.873-77.921-4.295s-3.221-61.815-3.221-61.815c-4.858-48.7-9.658-98.983-28.418-144.189l-.392-.944s-27.8,48.318-80.637,46.83l19.4-18.339s-66.178,24.921-102.163,29.925a22.789,22.789,0,0,0-13.725,37.9q.317.347.647.7c22.006,23.282,65.807,77.394,38.219,118.165s-5.262,52.73-5.262,52.73L740.6,599.591l-18.551-11.854-.425,15.1-97.806-14.086s-26.312-4.518,32.106-67.082c0,0,15.651-24.494,9.716-46.167a108.435,108.435,0,0,1-2.692-50.807C677.619,354.3,731.339,215.037,922.494,310.107Z" transform="translate(1209.907 270.808)" fill="#dfc393"/>
        <path d="M51.272,65.653a34.02,34.02,0,0,1-7.725-3.281,32.43,32.43,0,0,1-6.723-5.193,16.414,16.414,0,0,1-3.268-5.168,20.068,20.068,0,0,1-1.294-5.7,58.308,58.308,0,0,1,.692-12.2,68.255,68.255,0,0,0,.779-10.106c.071-1.017.2-2.082.328-3.112a22.045,22.045,0,0,0,.143-7.081A5.831,5.831,0,0,0,29.7,9.289a11.86,11.86,0,0,0-1.241-.281C21.183,7.544,13.412,7.293,5.9,7.051c-3.628-.117-7.379-.238-11.009-.495a142.295,142.295,0,0,1-24.623-.207c-.012,0-.019-.007-.018-.009.005-.028.914.007,3.4.216.22-.013.36-.086.417-.217.264-.61-1.206-2.375-2.908-4.418-1.94-2.329-4.139-4.968-3.978-6.265a.777.777,0,0,1,.32-.555A82.237,82.237,0,0,0-6.685-5.416C.437-6.513,7.163-7.55,21.069-4.9a14.569,14.569,0,0,0,5.354,2.808c4.626,1.326,9.7.532,14.616-.236,1.628-.255,3.164-.495,4.69-.663,4.65.44,9.519.642,14.227.836,10.05.415,20.442.845,29.991,3.583a48.2,48.2,0,0,1,16.189,7.915,16,16,0,0,0,4,1.728,41.4,41.4,0,0,0,10.556,1.079,52.336,52.336,0,0,1,8.589.618,78.188,78.188,0,0,1,17.493-3.427A50.8,50.8,0,0,1,164.337,11a42.853,42.853,0,0,1,5.454,1.971,27.867,27.867,0,0,0,4.293,1.5c2.945.861,5.989,1.751,6.862,3.852.513,1.235.251,2.774-.8,4.7-3.9,3.836-6.189,8.8-7.191,15.634-2.333,7.671-4.74,15.091-8.512,21.536-4.457,7.616-10.028,12.39-17.033,14.6-.831,0-1.73.038-2.682.08a25.787,25.787,0,0,1-7.867-.443,6.359,6.359,0,0,1-4.707-4.485,70.16,70.16,0,0,1-6.488-12.082,54.378,54.378,0,0,1-3.606-13.148,43.025,43.025,0,0,0-2.734-7.912c-1.394-3.315-2.835-6.743-3.074-10.483-2.4.218-4.971,1.835-7.059,4.436a13.754,13.754,0,0,0-3.234,7.761,72.519,72.519,0,0,0-7.072,9.1c-4.721,6.76-9.6,13.75-17.805,16.369-6.5,3.526-12.576,4.524-18.561,3.05A36.822,36.822,0,0,1,51.272,65.653ZM66.138,2.534h0C64.5,2.554,62.8,2.4,60.991,2.242c-5.837-.52-11.873-1.057-15.323,4.5-6.6,8.322-7.191,19.288-7.666,28.1-.079,1.317-.249,2.708-.428,4.181-.8,6.536-1.7,13.944,5.459,16.879a25.448,25.448,0,0,0,10.182,5.514C59.049,63.094,66,63.282,74.461,62c8.585-2.556,16.5-9.485,24.2-21.183a28.183,28.183,0,0,1,3.441-8.739,55.418,55.418,0,0,0,2.873-6c2.278-5.605-.123-11.606-5.84-14.593a60.28,60.28,0,0,0-13.332-5.5A108.293,108.293,0,0,0,66.138,2.535Zm93.477,12.16c-1.27-.364-2.555-.683-3.8-.991-.563-.14-1.1-.271-1.629-.408-8.512.318-19.721,2.612-24.777,11.732-6.267,10.584-3.174,23.9.677,35.537a15.547,15.547,0,0,0,9.622,8.305,16.27,16.27,0,0,0,5.726.554A16.477,16.477,0,0,0,159.043,60.3c6.384-8.384,10.417-19.846,11.987-34.07C171.011,18.943,165.249,16.31,159.615,14.694Z" transform="translate(1981.806 687.708)" fill="#1d2366"/>
        <path d="M915.72,742.5s24.542,19.266,34.635,19.2S915.72,742.5,915.72,742.5Z" transform="translate(-255.668 962.576)" opacity="0.1"/>
        <g transform="translate(2150.939 2433.726) rotate(13)">
            <path d="M112.889,17.322,49.026,86.259s-59.1.665-47.521-31.949A124.526,124.526,0,0,0,6.4,32.649C14.837,39.158,26.98,58.4,26.98,58.4S67.712,70.3,78.91,34.644C85.209,14.7,95.077,4.829,102.6,0a103.712,103.712,0,0,0,10.288,17.322Z" transform="translate(12.574 0.854)" opacity="0.1"/>
            <path d="M273.591,122A116.284,116.284,0,0,1,195.8,150c-52.665-.77-151.1-2.31-173.953-3.254C-8.738,145.412,1.41,119.307,2.39,101.25V99.43c.35-17.987,4.094-57.04,10.078-62.989S39.449,63.6,39.449,63.6s40.732,11.9,51.931-23.76S125.463.5,125.463.5c10.5-4.479,10.883,22.4,10.883,22.4L222.6,67.411l50.6,7.979c1.645.735,3.115,1.5,4.514,2.24C300.43,90.3,290.352,107.514,273.591,122Z" transform="translate(0 0)" fill="#1d2366"/>
            <circle cx="3.744" cy="3.744" r="3.744" transform="translate(110.451 45.995)" fill="#fff" opacity="0.25"/>
            <circle cx="3.744" cy="3.744" r="3.744" transform="translate(145.444 63.317)" fill="#fff" opacity="0.25"/>
            <circle cx="3.744" cy="3.744" r="3.744" transform="translate(163.465 71.401)" fill="#fff" opacity="0.25"/>
            <circle cx="3.744" cy="3.744" r="3.744" transform="translate(200.804 85.748)" fill="#fff" opacity="0.25"/>
            <circle cx="3.744" cy="3.744" r="3.744" transform="translate(181.803 79.624)" fill="#fff" opacity="0.25"/>
            <path d="M273.591,44.2A116.284,116.284,0,0,1,195.8,72.192c-52.665-.77-151.1-2.31-173.953-3.254C-8.738,67.608,1.41,41.5,2.39,23.446l191.975,11.9S273,23.411,277.685,0C300.43,12.493,290.352,29.71,273.591,44.2Z" transform="translate(0 77.805)" fill="#1d2366"/>
            <path d="M273.591,44.441A116.249,116.249,0,0,1,195.8,72.226c-52.665-.77-151.1-2.274-173.953-3.254C-8.738,67.642,1.41,41.537,2.39,23.48L194.365,35.343S273,23.411,277.685,0C300.43,12.737,290.352,29.954,273.591,44.441Z" transform="translate(0 76.79)" fill="#fff" opacity="0.25"/>
        </g>
        <g transform="matrix(0.946, 0.326, -0.326, 0.946, 1781.552, 2447.576)">
            <path d="M112.889,17.322,49.026,86.259s-59.1.665-47.521-31.949A124.526,124.526,0,0,0,6.4,32.649C14.837,39.158,26.98,58.4,26.98,58.4S67.712,70.3,78.91,34.644C85.209,14.7,95.077,4.829,102.6,0a103.712,103.712,0,0,0,10.288,17.322Z" transform="translate(12.574 0.854)" opacity="0.1"/>
            <path d="M273.591,122A116.284,116.284,0,0,1,195.8,150c-52.665-.77-151.1-2.31-173.953-3.254C-8.738,145.412,1.41,119.307,2.39,101.25V99.43c.35-17.987,4.094-57.04,10.078-62.989S39.449,63.6,39.449,63.6s40.732,11.9,51.931-23.76S125.463.5,125.463.5c10.5-4.479,10.883,22.4,10.883,22.4L222.6,67.411l50.6,7.979c1.645.735,3.115,1.5,4.514,2.24C300.43,90.3,290.352,107.514,273.591,122Z" transform="translate(0 0)" fill="#1d2366"/>
            <circle cx="3.744" cy="3.744" r="3.744" transform="translate(110.451 45.995)" fill="#fff" opacity="0.25"/>
            <circle cx="3.744" cy="3.744" r="3.744" transform="translate(145.444 63.317)" fill="#fff" opacity="0.25"/>
            <circle cx="3.744" cy="3.744" r="3.744" transform="translate(163.465 71.401)" fill="#fff" opacity="0.25"/>
            <circle cx="3.744" cy="3.744" r="3.744" transform="translate(200.804 85.748)" fill="#fff" opacity="0.25"/>
            <circle cx="3.744" cy="3.744" r="3.744" transform="translate(181.803 79.624)" fill="#fff" opacity="0.25"/>
            <path d="M273.591,44.2A116.284,116.284,0,0,1,195.8,72.192c-52.665-.77-151.1-2.31-173.953-3.254C-8.738,67.608,1.41,41.5,2.39,23.446l191.975,11.9S273,23.411,277.685,0C300.43,12.493,290.352,29.71,273.591,44.2Z" transform="translate(0 77.805)" fill="#1d2366"/>
            <path d="M273.591,44.441A116.249,116.249,0,0,1,195.8,72.226c-52.665-.77-151.1-2.274-173.953-3.254C-8.738,67.642,1.41,41.537,2.39,23.48L194.365,35.343S273,23.411,277.685,0C300.43,12.737,290.352,29.954,273.591,44.441Z" transform="translate(0 76.79)" fill="#fff" opacity="0.25"/>
        </g>
    </g>
</svg>